Coordinates
nRows=153
nColumns=2
inDegrees=yes
endheader
time	ankle_angle_r	
2.93731	 18.783557	
2.99981	 18.786885	
3.0623	 18.844094	
3.1248	 18.847016	
3.1873	 18.840120	
3.24979	 18.837579	
3.31229	 18.782560	
3.37478	 18.769378	
3.43728	 18.804860	
3.49978	 18.811435	
3.56227	 18.823879	
3.62477	 18.860473	
3.68726	 18.889506	
3.74976	 18.896121	
3.81226	 18.861270	
3.87475	 18.813245	
3.93725	 18.785830	
3.99974	 18.762897	
4.06224	 18.808208	
4.12474	 18.920596	
4.18723	 18.971623	
4.24973	 18.953562	
4.31222	 18.897280	
4.37472	 18.843678	
4.43722	 18.825524	
4.49971	 18.791445	
4.56221	 18.809109	
4.6247	 18.890374	
4.6872	 18.918272	
4.7497	 18.915619	
4.81219	 18.889602	
4.87469	 18.857398	
4.93718	 18.875121	
4.99968	 18.838693	
5.06218	 18.788973	
5.12467	 18.858011	
5.18717	 18.924297	
5.24966	 18.922111	
5.31216	 18.891785	
5.37466	 18.828896	
5.43715	 18.800272	
5.49965	 18.815577	
5.56214	 18.839365	
5.62464	 18.874229	
5.68714	 18.893334	
5.74963	 18.923263	
5.81213	 18.929891	
5.87462	 18.850301	
5.93712	 18.796818	
5.99962	 18.809748	
6.06211	 18.818559	
6.12461	 18.838077	
6.1871	 18.853829	
6.2496	 18.849041	
6.3121	 18.859056	
6.37459	 18.837624	
6.43709	 18.780910	
6.49958	 18.759096	
6.56208	 18.759551	
6.62458	 18.794921	
6.68707	 18.850875	
6.74957	 18.853351	
6.81206	 18.835959	
6.87456	 18.809985	
6.93706	 18.768459	
6.99955	 18.748369	
7.06205	 18.730797	
7.12454	 18.755224	
7.18704	 18.826988	
7.24954	 18.848423	
7.31203	 18.847296	
7.37453	 18.836422	
7.43702	 18.781390	
7.49952	 18.758879	
7.56202	 18.772222	
7.62451	 18.800478	
7.68701	 18.849170	
7.7495	 18.854554	
7.812	 18.840908	
7.8745	 18.826714	
7.93699	 18.781642	
7.99949	 18.763766	
8.06198	 18.777245	
8.12448	 18.804941	
8.18698	 18.844698	
8.24947	 18.834140	
8.31197	 18.816254	
8.37446	 18.831670	
8.43696	 18.797199	
8.49946	 18.753293	
8.56195	 18.761457	
8.62445	 18.774380	
8.68694	 18.804438	
8.74944	 18.834136	
8.81194	 18.837157	
8.87443	 18.863057	
8.93693	 18.869965	
8.99942	 18.836471	
9.06192	 18.812284	
9.12442	 18.804479	
9.18691	 18.849413	
9.24941	 18.887055	
9.3119	 18.854586	
9.3744	 18.844986	
9.4369	 18.830927	
9.49939	 18.784292	
9.56189	 18.771382	
9.62438	 18.751125	
9.68688	 18.766814	
9.74938	 18.838510	
9.81187	 18.848934	
9.87437	 18.840027	
9.93686	 18.835857	
9.99936	 18.788177	
10.0619	 18.763040	
10.1244	 18.767328	
10.1868	 18.796463	
10.2493	 18.845908	
10.3118	 18.845371	
10.3743	 18.837005	
10.4368	 18.828624	
10.4993	 18.776856	
10.5618	 18.759251	
10.6243	 18.778655	
10.6868	 18.800968	
10.7493	 18.838243	
10.8118	 18.837793	
10.8743	 18.816260	
10.9368	 18.805501	
10.9993	 18.774682	
11.0618	 18.775922	
11.1243	 18.804227	
11.1868	 18.801535	
11.2493	 18.819073	
11.3118	 18.851517	
11.3743	 18.854824	
11.4368	 18.848919	
11.4993	 18.817004	
11.5618	 18.781880	
11.6243	 18.787006	
11.6868	 18.808014	
11.7492	 18.846867	
11.8117	 18.880233	
11.8742	 18.891196	
11.9367	 18.905925	
11.9992	 18.889150	
12.0617	 18.871991	
12.1242	 18.879107	
12.1867	 18.840451	
12.2492	 18.823625	
12.3117	 18.869639	
12.3742	 18.892941	
12.4367	 18.905399	
